<?xml version="1.0" standalone="no"?>
<!DOCTYPE svg PUBLIC "-//W3C//DTD SVG 20010904//EN"
 "http://www.w3.org/TR/2001/REC-SVG-20010904/DTD/svg10.dtd">
<svg version="1.0" xmlns="http://www.w3.org/2000/svg"
 width="2281.000000pt" height="701.000000pt" viewBox="0 0 2281.000000 701.000000"
 preserveAspectRatio="xMidYMid meet">

<g transform="translate(0.000000,701.000000) scale(0.100000,-0.100000)"
fill="#FFFFFF" stroke="none">
<path d="M3470 6991 c-57 -19 -110 -53 -146 -94 -127 -144 -947 -1371 -1240
-1855 -37 -63 -75 -117 -84 -121 -8 -5 -145 -50 -305 -101 -490 -156 -1089
-370 -1307 -465 -117 -51 -169 -91 -197 -148 -45 -93 -16 -189 86 -288 32 -31
220 -191 418 -355 198 -164 359 -301 358 -304 -1 -4 -30 -56 -63 -116 -93
-166 -452 -890 -567 -1144 -345 -762 -446 -1070 -413 -1258 32 -186 166 -306
340 -307 141 0 207 42 1088 701 260 195 614 462 788 594 173 132 318 241 322
243 11 3 1084 -973 1794 -1632 206 -190 267 -238 363 -286 96 -48 174 -62 271
-47 154 24 267 109 340 257 l39 79 -1 136 c0 166 -13 216 -131 535 -228 615
-312 872 -502 1535 -89 312 -211 768 -211 790 0 35 1283 869 1910 1241 371
221 395 237 464 305 87 86 111 138 111 239 -1 95 -22 150 -85 219 -117 127
-273 153 -955 163 -621 9 -1177 -26 -1729 -107 -76 -11 -140 -19 -142 -17 -4
3 -109 661 -158 987 -52 341 -64 398 -97 467 -32 66 -80 112 -145 139 -44 18
-176 28 -214 15z m-261 -811 c29 -15 39 -52 81 -320 22 -140 53 -331 69 -425
16 -93 28 -171 26 -173 -2 -2 -101 -25 -222 -52 -258 -57 -702 -163 -773 -184
-27 -8 -50 -13 -50 -10 0 19 440 685 615 930 118 164 146 198 190 225 35 22
40 22 64 9z m2513 -1139 c72 -27 70 -96 -5 -168 -23 -23 -319 -225 -657 -451
-756 -503 -697 -466 -704 -444 -27 87 -212 999 -204 1007 3 3 82 12 174 20
564 46 1319 66 1396 36z m-2203 -493 c39 -200 101 -493 137 -653 83 -372 80
-351 60 -358 -18 -7 -1005 -669 -1240 -831 -118 -82 -141 -94 -155 -84 -8 7
-217 181 -463 386 l-448 372 29 53 c16 28 89 162 161 297 178 328 366 666 461
826 l78 131 103 22 c245 52 1099 197 1179 200 l25 1 73 -362z m-1709 57 c0
-11 -36 -74 -195 -345 -167 -283 -263 -453 -354 -623 l-53 -98 -41 34 c-23 18
-180 142 -348 276 -346 274 -364 294 -302 353 54 50 555 214 1078 354 215 57
215 57 215 49z m-143 -1857 c210 -180 384 -332 387 -337 3 -5 -47 -47 -112
-93 -1054 -757 -1190 -851 -1250 -867 -108 -30 -153 67 -98 211 13 35 153 338
311 673 158 336 303 643 322 683 23 49 38 70 46 65 7 -4 184 -155 394 -335z
m2277 -51 c90 -340 254 -908 361 -1252 54 -170 111 -354 128 -408 25 -80 29
-104 21 -135 -13 -54 -51 -65 -109 -32 -48 28 -1504 1301 -1502 1312 2 8 1028
737 1037 738 3 0 31 -100 64 -223z"/>
<path d="M13750 5166 l0 -205 -37 5 c-21 3 -50 7 -64 9 -54 8 -164 -15 -236
-50 -148 -73 -232 -217 -233 -400 0 -218 126 -374 338 -415 87 -18 239 -8 325
20 l67 23 0 608 0 609 -80 0 -80 0 0 -204z m-22 -332 l22 -6 0 -289 c0 -266
-1 -290 -17 -297 -10 -4 -56 -7 -103 -7 -132 1 -216 50 -264 155 -30 65 -30
216 0 281 53 113 140 169 264 169 41 0 85 -3 98 -6z"/>
<path d="M15470 5164 l0 -205 -22 7 c-12 3 -63 6 -112 6 -237 -1 -398 -141
-436 -379 -37 -232 102 -436 330 -484 77 -16 239 -6 323 21 l67 21 0 609 0
610 -75 0 -75 0 0 -206z m-26 -334 l26 -10 0 -284 0 -285 -42 -12 c-58 -15
-152 -6 -216 21 -64 28 -115 84 -138 152 -18 54 -20 174 -5 226 26 87 95 161
176 190 38 13 166 15 199 2z"/>
<path d="M9674 5320 c-12 -4 -31 -21 -44 -37 -29 -37 -23 -98 15 -130 62 -54
165 -9 165 72 0 49 -15 74 -55 91 -39 16 -51 16 -81 4z"/>
<path d="M12883 5316 c-39 -18 -53 -43 -53 -96 0 -58 33 -90 95 -90 127 0 140
168 15 194 -14 3 -39 -1 -57 -8z"/>
<path d="M7592 4843 c3 -431 4 -439 26 -496 46 -113 128 -190 241 -225 80 -25
285 -24 361 1 118 40 192 112 242 236 22 55 23 67 26 489 l3 432 -80 0 -81 0
0 -403 c0 -442 -3 -466 -59 -544 -19 -26 -50 -51 -87 -69 -50 -24 -70 -28
-144 -28 -76 0 -94 3 -146 29 -64 33 -114 94 -134 163 -6 22 -10 198 -10 445
l0 407 -81 0 -80 0 3 -437z"/>
<path d="M9108 4970 c-56 -10 -149 -50 -196 -86 -18 -14 -35 -24 -37 -22 -3 2
-8 22 -13 44 l-8 39 -67 3 -67 3 0 -416 0 -415 80 0 80 0 0 305 0 304 58 39
c73 48 100 60 159 67 60 8 109 -15 138 -65 19 -33 20 -54 23 -342 l3 -308 80
0 80 0 -3 328 c-3 319 -4 328 -27 379 -50 111 -155 164 -283 143z"/>
<path d="M11044 4970 c-179 -26 -294 -192 -294 -425 0 -148 35 -248 116 -335
110 -118 324 -145 505 -64 l57 26 -23 51 c-25 57 -25 57 -105 28 -68 -25 -184
-28 -238 -5 -79 32 -152 137 -152 217 l0 37 271 0 271 0 -7 78 c-9 102 -22
156 -56 223 -63 126 -195 190 -345 169z m140 -143 c49 -27 96 -110 96 -168 l0
-39 -185 0 -185 0 0 33 c0 37 39 125 66 149 60 53 142 63 208 25z"/>
<path d="M11941 4969 c-50 -10 -115 -46 -150 -83 -14 -14 -28 -26 -32 -26 -4
0 -10 20 -13 45 l-7 45 -65 0 -64 0 0 -415 0 -415 75 0 75 0 0 296 c0 175 4
303 10 314 5 10 37 37 71 59 52 35 69 41 113 41 28 0 58 -5 66 -10 12 -7 20 4
42 58 24 61 25 68 10 80 -9 6 -26 12 -38 12 -12 0 -28 2 -36 4 -7 2 -33 0 -57
-5z"/>
<path d="M12358 4969 c-73 -10 -125 -37 -171 -88 -54 -59 -67 -121 -46 -208
17 -67 69 -115 175 -163 185 -84 204 -100 204 -164 0 -80 -52 -116 -168 -116
-67 0 -168 26 -198 51 -11 9 -19 -1 -39 -46 -14 -32 -25 -59 -25 -61 0 -9 83
-44 141 -59 47 -13 89 -16 157 -12 81 4 102 9 160 38 79 41 119 95 129 177 15
129 -47 210 -216 281 -135 58 -171 88 -171 145 0 52 24 81 82 97 61 16 172 1
261 -36 15 -6 17 0 17 59 0 74 -2 76 -85 94 -75 16 -144 20 -207 11z"/>
<path d="M14380 4973 c-98 -10 -250 -62 -250 -85 0 -8 38 -87 46 -96 1 -2 33
8 70 23 41 16 94 29 138 32 61 4 77 2 115 -19 55 -30 81 -76 81 -144 l0 -51
-132 -6 c-149 -6 -213 -21 -277 -67 -52 -38 -77 -79 -91 -147 -24 -112 26
-226 121 -278 49 -27 63 -30 144 -30 95 0 135 13 213 72 18 14 35 23 36 22 1
-2 7 -20 12 -39 10 -35 10 -35 75 -38 l65 -3 -3 163 c-8 474 -9 492 -27 533
-21 50 -69 101 -118 126 -30 15 -159 42 -178 37 -3 -1 -21 -3 -40 -5z m200
-554 c0 -92 -2 -103 -22 -120 -46 -40 -121 -69 -178 -69 -73 0 -112 24 -135
84 -21 55 -14 103 21 145 37 44 87 57 227 60 l87 1 0 -101z"/>
<path d="M16180 4970 c-66 -11 -112 -33 -160 -76 -92 -83 -133 -187 -134 -344
-2 -226 89 -375 263 -430 71 -23 172 -26 253 -9 75 16 161 56 155 71 -37 94
-40 99 -56 92 -121 -53 -236 -60 -320 -18 -62 31 -104 84 -126 157 -28 95 -51
87 256 87 l272 0 -6 93 c-11 175 -72 287 -187 344 -70 34 -137 44 -210 33z
m117 -131 c60 -23 108 -93 120 -174 l6 -45 -192 0 c-214 0 -201 -6 -176 78 35
117 142 179 242 141z"/>
<path d="M9630 4535 l0 -415 80 0 80 0 0 415 0 415 -80 0 -80 0 0 -415z"/>
<path d="M9950 4853 c46 -118 280 -713 287 -730 3 -9 27 -13 67 -13 l63 0 156
403 c86 221 159 410 163 420 5 15 -2 17 -74 17 l-80 0 -11 -32 c-110 -316
-206 -585 -211 -591 -4 -4 -58 134 -121 308 l-114 315 -82 0 -81 0 38 -97z"/>
<path d="M12850 4535 l0 -415 75 0 75 0 0 415 0 415 -75 0 -75 0 0 -415z"/>
<path d="M10511 3440 c-477 -60 -844 -378 -960 -833 -29 -111 -41 -214 -41
-345 0 -483 223 -866 617 -1061 161 -80 293 -110 508 -117 194 -7 315 9 475
62 391 130 647 430 732 859 25 127 27 368 4 497 -88 487 -422 830 -898 923
-100 20 -334 27 -437 15z m348 -416 c229 -51 391 -221 463 -486 20 -74 23
-105 22 -278 0 -168 -3 -206 -22 -275 -72 -263 -245 -441 -477 -490 -39 -8
-110 -15 -158 -15 -388 -1 -640 271 -664 716 -11 202 33 417 112 549 144 240
421 347 724 279z"/>
<path d="M12905 3439 c-220 -32 -411 -145 -516 -306 -76 -117 -94 -182 -94
-343 0 -155 12 -208 72 -309 82 -138 200 -228 506 -385 265 -135 338 -190 379
-284 58 -131 -5 -256 -155 -309 -80 -28 -296 -25 -401 5 -83 24 -192 72 -263
117 l-42 26 -91 -182 c-106 -211 -112 -181 55 -264 189 -93 392 -132 639 -122
218 9 359 51 514 154 192 127 295 338 277 571 -12 161 -63 277 -172 392 -84
90 -185 155 -440 285 -308 156 -383 230 -371 369 12 144 140 209 368 185 121
-12 251 -47 371 -98 52 -23 97 -41 102 -41 4 0 7 96 7 214 l0 214 -48 20
c-187 81 -493 120 -697 91z"/>
<path d="M21480 3443 c-87 -9 -208 -36 -288 -64 -390 -136 -653 -454 -727
-877 -21 -118 -21 -354 1 -479 76 -448 362 -771 795 -896 236 -69 568 -60 800
21 210 74 418 232 538 411 96 142 165 327 192 520 16 116 6 370 -20 481 -114
495 -480 822 -986 880 -86 9 -230 11 -305 3z m319 -419 c104 -23 210 -85 290
-169 123 -130 186 -299 198 -530 14 -281 -59 -516 -205 -664 -77 -78 -132
-113 -235 -148 -96 -33 -268 -42 -377 -19 -236 50 -410 227 -482 491 -19 69
-22 106 -22 275 0 171 3 205 22 275 51 183 140 319 265 402 151 101 343 132
546 87z"/>
<path d="M7640 2265 l0 -1155 238 2 237 3 3 388 2 387 106 0 c207 0 404 44
559 123 106 55 226 173 278 272 64 124 82 208 82 380 0 174 -13 235 -76 363
-97 198 -294 331 -558 376 -76 13 -171 16 -483 16 l-388 0 0 -1155z m779 743
c54 -17 75 -30 127 -82 54 -54 65 -72 84 -135 19 -60 22 -89 18 -165 -13 -239
-145 -346 -428 -346 l-100 0 0 381 0 381 118 -7 c68 -4 144 -16 181 -27z"/>
<path d="M14240 2265 l0 -1155 238 2 237 3 3 1153 2 1152 -240 0 -240 0 0
-1155z"/>
<path d="M15030 3220 l0 -200 335 0 335 0 2 -952 3 -953 237 -3 238 -2 2 952
3 953 304 5 304 5 53 170 c29 94 56 182 59 198 l7 27 -941 0 -941 0 0 -200z"/>
<path d="M17190 2265 l0 -1155 238 2 237 3 3 1153 2 1152 -240 0 -240 0 0
-1155z"/>
<path d="M17964 3403 c4 -10 214 -532 469 -1160 l462 -1143 206 0 c156 0 208
3 212 12 42 107 930 2295 934 2301 2 4 -113 6 -257 5 l-262 -3 -258 -672
c-142 -369 -282 -739 -310 -822 -29 -83 -56 -151 -59 -151 -3 0 -25 57 -49
128 -24 70 -163 440 -310 822 l-267 695 -259 3 c-243 2 -258 1 -252 -15z"/>
</g>
</svg>
